<svg xmlns="http://www.w3.org/2000/svg" version="1.2" viewBox="0 0 440.2 86.65">
	<style>
		.s0 { fill: #cfc9c2 } 
		.s1 { fill: #090b0d } 
	</style>
	<g id="Folder 2">
		<path id="&lt;Path&gt;" class="s0" d="m396.88 0h-353.55c-23.93 0-43.33 19.4-43.33 43.33 0 23.92 19.4 43.32 43.33 43.32h353.55c23.92 0 43.32-19.4 43.32-43.32 0-23.93-19.4-43.33-43.32-43.33z"/>
		<path id="&lt;Compound Path&gt;" class="s1" d="m72.91 74.11v-2.27q8.95-0.97 8.95-6.55 0-3.3-2.53-3.5l-0.84-0.07q-3.63-0.25-3.63-3.56 0-1.89 1.13-2.96 1.14-1.07 3.02-1.07 3.18 0 5 3.18 1.55 2.66 1.55 6.1 0 5.39-3.76 8.17-3.31 2.4-8.89 2.53z"/>
		<path id="&lt;Compound Path&gt;" class="s1" d="m248.36 74.11v-2.27q8.95-0.97 8.95-6.55 0.01-3.3-2.53-3.5l-0.84-0.07q-3.63-0.25-3.63-3.56 0-1.89 1.13-2.96 1.14-1.07 3.02-1.07 3.18 0 5 3.18 1.55 2.66 1.55 6.1 0 5.39-3.76 8.17-3.31 2.4-8.89 2.53z"/>
		<path id="&lt;Compound Path&gt;" class="s1" d="m373.07 43.65q0-12.41 5.27-22.88 6.53-12.97 17.87-12.97 11.22 0 17.53 11.03 5.26 9.11 5.27 21.17-0.01 12.52-5.27 22.65-6.42 12.74-17.88 12.74-10.88 0-17.29-10.92-5.5-9.33-5.5-20.82zm9.62-3.76q0 16.38 4.93 25.49 3.43 6.37 8.82 6.37 12.94 0 12.94-26.63 0-11.72-2.05-19.8-3.56-13.31-12.04-13.31-12.6 0-12.6 25.72z"/>
		<path id="&lt;Compound Path&gt;" class="s1" d="m320.21 43.65q0-12.41 5.27-22.88 6.53-12.97 17.87-12.97 11.22 0 17.53 11.03 5.26 9.11 5.27 21.17-0.01 12.52-5.27 22.65-6.42 12.74-17.87 12.74-10.89 0-17.3-10.92-5.5-9.33-5.5-20.82zm9.62-3.76q0 16.38 4.93 25.49 3.43 6.37 8.82 6.37 12.95 0 12.95-26.63-0.01-11.72-2.06-19.8-3.56-13.31-12.04-13.31-12.6 0-12.6 25.72z"/>
		<path id="&lt;Compound Path&gt;" class="s1" d="m267.08 43.65q0-12.41 5.27-22.88 6.53-12.97 17.87-12.97 11.22 0 17.53 11.03 5.26 9.11 5.27 21.17-0.01 12.52-5.27 22.65-6.42 12.74-17.88 12.74-10.88 0-17.29-10.92-5.5-9.33-5.5-20.82zm9.62-3.76q0 16.38 4.93 25.49 3.43 6.37 8.82 6.37 12.94 0 12.94-26.63 0-11.72-2.06-19.8-3.55-13.31-12.03-13.31-12.6 0-12.6 25.72z"/>
		<path id="&lt;Compound Path&gt;" class="s1" d="m196.58 43.65q0-12.41 5.27-22.88 6.53-12.97 17.88-12.97 11.22 0 17.52 11.03 5.27 9.11 5.27 21.17 0 12.52-5.27 22.65-6.42 12.74-17.87 12.74-10.88 0-17.3-10.92-5.49-9.33-5.5-20.82zm9.62-3.76q0 16.38 4.94 25.49 3.43 6.37 8.81 6.37 12.95 0 12.95-26.63 0-11.72-2.06-19.8-3.55-13.31-12.03-13.31-12.61 0-12.61 25.72z"/>
		<path id="&lt;Compound Path&gt;" class="s1" d="m143.73 43.65q-0.01-12.41 5.26-22.88 6.53-12.97 17.88-12.97 11.22 0 17.52 11.03 5.27 9.11 5.27 21.17 0 12.52-5.27 22.65-6.42 12.74-17.87 12.74-10.88 0-17.3-10.92-5.49-9.33-5.49-20.82zm9.62-3.76q-0.01 16.38 4.93 25.49 3.43 6.37 8.81 6.37 12.95 0 12.95-26.63 0-11.72-2.06-19.8-3.55-13.31-12.03-13.31-12.61 0-12.6 25.72z"/>
		<path id="&lt;Compound Path&gt;" class="s1" d="m90.59 43.65q0-12.41 5.27-22.88 6.53-12.97 17.88-12.97 11.22 0 17.52 11.03 5.27 9.11 5.27 21.17 0 12.52-5.27 22.65-6.42 12.74-17.87 12.74-10.88 0-17.3-10.92-5.5-9.33-5.5-20.82zm9.62-3.76q0 16.38 4.93 25.49 3.44 6.37 8.82 6.37 12.95 0 12.95-26.63 0-11.72-2.06-19.8-3.55-13.31-12.03-13.31-12.61 0-12.61 25.72z"/>
		<path id="&lt;Compound Path&gt;" class="s1" d="m53.55 7.8v54.16q-0.01 9.72 8.39 9.72h1.46v3.71h-29.56v-3.71h1.86q8.11 0 8.11-9.72v-35.53q0-9.83-7-9.83h-2.97v-3.59h1.07q8.66 0 15.67-5.21z"/>
	</g>
</svg>