<svg version="1.2" xmlns="http://www.w3.org/2000/svg" viewBox="0 0 100 100" width="100" height="100">
	<style>
		.s0 { fill: #cfc9c2 } 
		.s1 { fill: #090b0d } 
	</style>
	<g id="Layer 1">
		<g id="&lt;Group&gt;">
			<path id="&lt;Path&gt;" class="s0" d="m100 50c0 27.61-22.39 50-50 50-27.61 0-50-22.39-50-50 0-27.62 22.39-50 50-50 27.61 0 50 22.38 50 50z"/>
		</g>
		<path id="&lt;Compound Path&gt;" class="s1" d="m52.31 6.25v27.25q0 4.89 4.11 4.88h0.72v1.87h-14.5v-1.87h0.91q3.99 0.01 3.98-4.88v-17.88q0-4.94-3.43-4.94h-1.46v-1.81h0.53q4.24 0 7.68-2.62z"/>
		<path id="&lt;Compound Path&gt;" class="s1" d="m61.55 80.5l-2.5 8.46h-20.82v-1.81q1.52-1.69 6.65-6.82 3.09-3.09 6.12-6.53 1.52-1.7 2.33-2.92 1.81-2.62 1.81-5.36 0-2.69-1.66-4.73-1.66-2.04-4.29-2.04-5.66 0-8.86 7.64l-1.87-0.7q3.79-10.73 11.96-10.73 4.02 0 6.85 2.74 2.83 2.74 2.83 6.76 0 5.14-5.89 10.04l-4.08 3.38q-3.91 3.27-6.48 6.12-0.17 0.18-0.69 0.82h10.84q2.51 0 3.79-0.99 1.11-0.88 2.16-3.33z"/>
		<g id="&lt;Group&gt;">
			<path id="&lt;Compound Path&gt;" class="s1" d="m20.73 49.46v-2.92h58.33v2.92z"/>
		</g>
	</g>
</svg>